<svg width="512" height="512" viewBox="0 0 100 100" fill="none" xmlns="http://www.w3.org/2000/svg">
<!-- 背景（Midnight Blue） -->
<rect width="100" height="100" rx="20" fill="#1e293b"/>

<!-- カードの枠組み（Lumina Gold） -->

<rect x="25" y="15" width="50" height="70" rx="4" stroke="#c5a47e" stroke-width="1.5" />

<!-- 三日月（直感の象徴） -->

<path d="M58 35C58 43.8366 50.8366 51 42 51C39.463 51 37.078 50.4093 34.9653 49.3551C38.0163 53.4076 42.8553 56 48.3333 56C57.5381 56 65 48.5381 65 39.3333C65 33.8553 62.4076 29.0163 58.3551 25.9653C59.4093 28.078 60 30.463 60 33" stroke="#c5a47e" stroke-width="1.5" stroke-linecap="round"/>

<!-- 中央の星（導きの光） -->

<path d="M50 42L52 48L58 50L52 52L50 58L48 52L42 50L48 48L50 42Z" fill="#c5a47e" />

<!-- 装飾の輝き -->

<circle cx="35" cy="25" r="1" fill="#c5a47e" />
<circle cx="65" cy="70" r="1.5" fill="#c5a47e" />
</svg>